<?xml version="1.0" encoding="UTF-8" standalone="no"?>
<!-- Created with Inkscape (http://www.inkscape.org/) -->

<svg
   xmlns:dc="http://purl.org/dc/elements/1.1/"
   xmlns:cc="http://creativecommons.org/ns#"
   xmlns:rdf="http://www.w3.org/1999/02/22-rdf-syntax-ns#"
   xmlns:svg="http://www.w3.org/2000/svg"
   xmlns="http://www.w3.org/2000/svg"
   xmlns:sodipodi="http://sodipodi.sourceforge.net/DTD/sodipodi-0.dtd"
   xmlns:inkscape="http://www.inkscape.org/namespaces/inkscape"
   width="210mm"
   height="297mm"
   viewBox="0 0 744.09448819 1052.3622047"
   id="svg4140"
   version="1.1"
   inkscape:version="0.91 r13725"
   sodipodi:docname="tcc_e_and_spoon.svg">
  <defs
     id="defs4142" />
  <sodipodi:namedview
     id="base"
     pagecolor="#ffffff"
     bordercolor="#666666"
     borderopacity="1.0"
     inkscape:pageopacity="0.0"
     inkscape:pageshadow="2"
     inkscape:zoom="0.49497475"
     inkscape:cx="1350.9567"
     inkscape:cy="285.33107"
     inkscape:document-units="px"
     inkscape:current-layer="layer1"
     showgrid="false"
     inkscape:window-width="1920"
     inkscape:window-height="1004"
     inkscape:window-x="0"
     inkscape:window-y="24"
     inkscape:window-maximized="1" />
  <metadata
     id="metadata4145">
    <rdf:RDF>
      <cc:Work
         rdf:about="">
        <dc:format>image/svg+xml</dc:format>
        <dc:type
           rdf:resource="http://purl.org/dc/dcmitype/StillImage" />
        <dc:title></dc:title>
      </cc:Work>
    </rdf:RDF>
  </metadata>
  <g
     inkscape:label="Layer 1"
     inkscape:groupmode="layer"
     id="layer1">
    <text
       xml:space="preserve"
       style="font-style:normal;font-weight:normal;font-size:34.86666107px;line-height:83.99999738%;font-family:sans-serif;letter-spacing:0px;word-spacing:0px;fill:#000000;fill-opacity:1;stroke:none;stroke-width:1px;stroke-linecap:butt;stroke-linejoin:miter;stroke-opacity:1"
       x="34.182198"
       y="244.73845"
       id="text4688"
       sodipodi:linespacing="83.999997%"><tspan
         sodipodi:role="line"
         id="tspan4690"
         x="34.182198"
         y="244.73845"
         style="font-style:normal;font-variant:normal;font-weight:normal;font-stretch:normal;font-size:156.89996338px;line-height:83.99999738%;font-family:'Baloo Tammudu';-inkscape-font-specification:'Baloo Tammudu'">Egg</tspan><tspan
         sodipodi:role="line"
         x="34.182198"
         y="376.53442"
         id="tspan4692"
         style="font-style:normal;font-variant:normal;font-weight:normal;font-stretch:normal;font-size:156.89996338px;line-height:83.99999738%;font-family:'Baloo Tammudu';-inkscape-font-specification:'Baloo Tammudu'">&amp;</tspan><tspan
         sodipodi:role="line"
         x="34.182198"
         y="508.33038"
         id="tspan4694"
         style="font-style:normal;font-variant:normal;font-weight:normal;font-stretch:normal;font-size:156.89996338px;line-height:83.99999738%;font-family:'Baloo Tammudu';-inkscape-font-specification:'Baloo Tammudu'">Spoon</tspan><tspan
         sodipodi:role="line"
         x="34.182198"
         y="640.12634"
         id="tspan4696"
         style="font-style:normal;font-variant:normal;font-weight:normal;font-stretch:normal;font-size:156.89996338px;line-height:83.99999738%;font-family:'Baloo Tammudu';-inkscape-font-specification:'Baloo Tammudu'">Race</tspan></text>
    <path
       style="fill:#000000"
       d="m 442.10477,1001.9514 c -1.52506,-1.525 -1.60724,-1.9052 -1.2466,-5.76717 0.81252,-8.70114 6.04729,-16.1625 14.14827,-20.16623 4.65456,-2.30042 4.87033,-2.34174 13.30286,-2.54791 4.71436,-0.11524 9.36118,-0.5151 10.32628,-0.88851 2.72444,-1.05413 6.47918,-5.80441 8.58359,-10.85946 4.41706,-10.61023 5.01906,-25.07669 1.56351,-37.57206 l -0.96609,-3.49347 -4.56909,-1.41831 c -18.87222,-5.85822 -35.50195,-20.62247 -44.48062,-39.49086 -5.05947,-10.63231 -7.49468,-21.27103 -8.02833,-35.07357 l -0.35705,-9.23488 1.63627,-1.63628 c 1.36814,-1.36814 2.20899,-1.63628 5.13109,-1.63628 l 3.49481,0 5.4e-4,-5.82945 c 0.002,-18.35462 4.35003,-40.91983 11.04893,-57.33654 5.30698,-13.00563 11.34069,-22.75666 19.12441,-30.90679 17.40739,-18.22684 38.81929,-21.78073 59.1682,-9.82056 4.80057,2.82156 15.58377,13.57174 19.50462,19.44494 13.72257,20.5554 22.23434,50.64906 22.23686,78.61895 l 5.7e-4,5.82945 3.49477,0 c 2.92386,0 3.76268,0.26784 5.13434,1.6395 l 1.63949,1.63949 -0.38638,9.54677 c -0.91027,22.49183 -7.9897,40.2966 -21.79614,54.81736 -8.60251,9.04758 -19.5273,15.9637 -30.68991,19.42875 l -4.56909,1.41831 -0.9707,3.49347 c -3.61725,13.01825 -2.58942,29.77951 2.43407,39.69287 2.02156,3.98934 5.45099,7.86345 7.74605,8.75043 0.94946,0.36694 5.55483,0.76286 10.23416,0.8798 7.99608,0.19986 8.76108,0.33153 12.71743,2.18858 2.31527,1.08675 5.51,3.17465 7.09953,4.63977 3.93927,3.63111 7.18643,10.30606 7.69609,15.82046 0.36312,3.92923 0.28377,4.30083 -1.24481,5.82943 l -1.63267,1.6327 -62.44831,0 -62.44829,0 -1.63266,-1.6327 z m 118.27921,-9.42302 c 0,-0.53478 -1.29654,-2.35843 -2.8812,-4.05256 -4.93425,-5.27508 -2.74269,-5.05902 -51.27177,-5.05501 -29.11346,0.003 -43.38204,0.22363 -45.10545,0.69932 -1.63222,0.45054 -3.68718,1.85951 -5.82947,3.99697 -5.89639,5.88313 -10.61825,5.38357 50.88963,5.38357 48.42494,0 54.19826,-0.10352 54.19826,-0.97229 z M 517.41273,968.6135 c -5.25453,-10.0277 -7.35372,-25.35406 -5.30298,-38.71767 0.55457,-3.61388 1.00831,-6.73342 1.00831,-6.93234 0,-0.19891 -3.14839,-0.36165 -6.9964,-0.36165 l -6.99639,0 0.37512,2.52085 c 0.20633,1.38647 0.65484,4.36421 0.99672,6.61723 1.86472,12.28896 -0.5199,27.38311 -5.94888,37.65515 l -2.08174,3.93884 13.70987,0 13.70987,0 -2.4735,-4.72041 z m 4.5283,-57.68015 c 6.33209,-1.6237 15.26208,-5.6855 20.87426,-9.49465 11.61615,-7.88419 21.46383,-22.01951 25.86858,-37.13147 1.44022,-4.94107 3.0351,-14.94201 3.04021,-19.06391 l 0.007,-2.99352 -65.54206,0 -65.54206,0 0.004,2.99352 c 0.005,4.1219 1.59999,14.12284 3.04019,19.06391 6.41445,22.007 22.16927,38.82166 42.52413,45.38477 7.60505,2.45213 12.76973,3.12843 21.86466,2.86313 5.99899,-0.175 10.08751,-0.65323 13.86465,-1.62178 z m -23.00275,-8.6335 c -19.73927,-2.72983 -36.95554,-16.33032 -44.46205,-35.1241 -1.1004,-2.75502 -2.14554,-6.60632 -2.32257,-8.55846 -0.29955,-3.30366 -0.20152,-3.64396 1.41652,-4.9167 3.89262,-3.06194 7.04733,-0.92044 9.1262,6.19515 2.28476,7.82028 5.34482,12.92615 11.33688,18.9162 2.96948,2.96848 7.19899,6.42554 9.46483,7.73622 5.5226,3.19459 13.05333,5.49007 19.51057,5.9471 4.41609,0.31255 5.57854,0.62505 6.77477,1.82128 1.94262,1.94262 1.89865,4.8852 -0.10289,6.88673 -1.31661,1.31664 -2.09052,1.53284 -5.19924,1.45247 -2.0088,-0.0519 -4.50314,-0.21209 -5.543,-0.35589 z m 62.49279,-80.37438 c -0.62617,-15.61951 -2.81868,-27.97586 -7.40833,-41.75154 -14.82217,-44.48796 -45.52809,-61.20945 -71.86059,-39.13304 -18.04123,15.12525 -31.43508,51.31344 -31.43508,84.93287 l 0,6.19265 55.55728,0 55.55725,0 -0.41053,-10.24094 z m -98.32989,-1.14861 c -1.43746,-1.13071 -1.66051,-1.77592 -1.66051,-4.80326 0,-8.36832 3.09231,-23.91332 7.03925,-35.38629 7.35859,-21.38989 19.13529,-35.51315 32.10616,-38.50346 4.74678,-1.09433 7.37523,-0.84031 9.09446,0.87892 3.31067,3.31066 0.90405,8.5302 -3.93882,8.54267 -7.26071,0.0187 -16.71422,8.56972 -22.78466,20.60952 -6.14705,12.19176 -9.22351,23.80843 -11.7681,44.43629 -0.60849,4.93282 -4.56244,6.99863 -8.08778,4.22561 z m 177.63483,181.91924 c -9.39344,-2.3276 -16.0077,-9.33087 -18.02173,-19.08168 -0.62739,-3.03755 -0.63324,-6.3839 -0.0284,-16.34563 0.88122,-14.51849 5.04895,-72.87899 7.54899,-105.70779 l 1.72092,-22.59789 -3.48746,-2.23087 c -27.80304,-17.78539 -35.11626,-64.80323 -14.82671,-95.32311 3.63192,-5.46316 11.60069,-12.98184 16.56115,-15.62573 4.70995,-2.51041 12.3652,-4.5343 17.15068,-4.5343 4.78552,0 12.44078,2.02389 17.15078,4.5343 2.10956,1.12441 6.05594,4.13307 8.76958,6.68592 28.45215,26.76572 24.91198,83.50152 -6.48239,103.8899 -4.1049,2.66581 -4.18907,2.77525 -3.9251,5.09523 0.14847,1.30398 2.41479,32.85739 5.03637,70.11868 5.20762,74.02037 5.16661,72.17871 1.75416,78.91307 -5.05202,9.9697 -17.22349,15.1083 -28.9206,12.2099 z m 11.37468,-9.89912 c 4.14197,-1.04298 8.18524,-4.87718 9.4824,-8.99216 1.01881,-3.23209 0.90561,-5.3363 -4.09484,-76.14812 -3.96127,-56.09597 -4.98199,-73.17661 -4.44336,-74.35855 0.44146,-0.96895 2.37735,-2.36475 5.25333,-3.78784 10.86692,-5.37708 18.69408,-16.45385 22.61627,-32.00555 2.00578,-7.95312 1.96617,-23.87187 -0.0789,-31.69932 -5.02554,-19.23561 -15.83337,-31.70409 -29.5126,-34.04724 -16.31905,-2.79534 -31.8234,11.28064 -37.51957,34.06308 -2.03748,8.14904 -2.01398,23.98268 0.0472,31.8722 4.12593,15.79209 11.66692,26.4379 22.53752,31.81683 2.8088,1.38983 4.81489,2.82556 5.23436,3.74614 0.51255,1.12494 -0.16979,12.85793 -2.76966,47.62478 -4.09639,54.77903 -6.63482,91.83428 -6.63482,96.85188 0,11.27717 8.71085,17.87693 19.88257,15.06387 z M 623.69161,785.24426 c -1.85522,-1.85524 -2.02292,-5.25948 -0.66961,-13.5958 2.77369,-17.08614 11.71382,-28.91155 22.71582,-30.04706 3.05694,-0.3155 3.56182,-0.18711 5.02758,1.27878 2.13019,2.13012 2.16355,4.99125 0.0828,7.07222 -0.86231,0.86239 -2.28427,1.54688 -3.2133,1.54688 -4.25403,0 -8.33725,3.72772 -11.39201,10.40025 -2.36373,5.163 -3.34227,9.28377 -3.80968,16.0435 -0.34947,5.05284 -0.63236,6.18188 -1.85549,7.40499 -1.94174,1.94174 -4.8847,1.8974 -6.88587,-0.10378 z"
       id="path4709"
       inkscape:connector-curvature="0" />
    <flowRoot
       xml:space="preserve"
       id="flowRoot4777"
       style="font-style:normal;font-weight:normal;font-size:40px;line-height:125%;font-family:sans-serif;letter-spacing:0px;word-spacing:0px;fill:#000000;fill-opacity:1;stroke:none;stroke-width:1px;stroke-linecap:butt;stroke-linejoin:miter;stroke-opacity:1"
       transform="translate(-139.40105,18.223356)"><flowRegion
         id="flowRegion4779"><rect
           id="rect4781"
           width="834.38599"
           height="88.893425"
           x="183.84776"
           y="19.986282" /></flowRegion><flowPara
         id="flowPara4783"
         style="font-style:normal;font-variant:normal;font-weight:normal;font-stretch:normal;font-family:Knewave;-inkscape-font-specification:Knewave">The 1st annual Tom Crean Centre</flowPara></flowRoot>    <flowRoot
       xml:space="preserve"
       id="flowRoot4777-6"
       style="font-style:normal;font-weight:normal;font-size:40px;line-height:125%;font-family:sans-serif;letter-spacing:0px;word-spacing:0px;fill:#000000;fill-opacity:1;stroke:none;stroke-width:1px;stroke-linecap:butt;stroke-linejoin:miter;stroke-opacity:1"
       transform="translate(-137.63677,843.12652)"><flowRegion
         id="flowRegion4779-7"><rect
           id="rect4781-2"
           width="658.61951"
           height="301.02548"
           x="183.84776"
           y="19.986282" /></flowRegion><flowPara
         style="font-style:normal;font-variant:normal;font-weight:bold;font-stretch:normal;font-size:60px;font-family:'Roboto Slab';-inkscape-font-specification:'Roboto Slab Bold'"
         id="flowPara4833">12 noon</flowPara><flowPara
         style="font-style:normal;font-variant:normal;font-weight:bold;font-stretch:normal;font-size:60px;font-family:'Roboto Slab';-inkscape-font-specification:'Roboto Slab Bold'"
         id="flowPara4839">March 28th</flowPara><flowPara
         style="font-style:normal;font-variant:normal;font-weight:bold;font-stretch:normal;font-size:60px;font-family:'Roboto Slab';-inkscape-font-specification:'Roboto Slab Bold'"
         id="flowPara4837" /><flowPara
         style="font-style:normal;font-variant:normal;font-weight:bold;font-stretch:normal;font-size:60px;font-family:'Roboto Slab';-inkscape-font-specification:'Roboto Slab Bold'"
         id="flowPara4831" /></flowRoot>  </g>
</svg>
